M48
; DRILL file {KiCad (5.1.9)-1} date 02/07/21 17:15:17
; FORMAT={-:-/ absolute / inch / decimal}
; #@! TF.CreationDate,2021-02-07T17:15:17-05:00
; #@! TF.GenerationSoftware,Kicad,Pcbnew,(5.1.9)-1
; #@! TF.FileFunction,Plated,1,2,PTH
FMAT,2
INCH
T1C0.0276
T2C0.0354
T3C0.0394
T4C0.0402
T5C0.0591
T6C0.1024
%
G90
G05
T1
X5.2165Y-1.5059
X5.2913Y-1.5059
X5.6121Y-2.4609
X5.6824Y-4.125
X5.9192Y-2.4609
X5.9895Y-4.125
X6.409Y-2.4609
X6.4324Y-4.125
X6.716Y-2.4609
X6.7395Y-4.125
X6.8996Y-1.5
X6.9035Y-1.7717
X6.9134Y-2.0625
X6.9744Y-1.5
X6.9783Y-1.7717
X6.9882Y-2.0625
X7.159Y-4.125
X7.1824Y-2.4375
X7.466Y-4.125
X7.4895Y-2.4375
T2
X4.7344Y-1.5
X4.8344Y-1.5
X7.2656Y-1.5
X7.2656Y-1.7813
X7.2656Y-2.0625
X7.3656Y-1.5
X7.3656Y-1.7813
X7.3656Y-2.0625
T3
X6.0Y-1.6782
X6.0Y-1.7766
X6.0Y-1.875
X6.5709Y-1.6782
X6.5709Y-1.875
T4
X4.4312Y-2.05
X4.4312Y-2.15
X4.4312Y-2.25
X4.4312Y-2.35
X4.4312Y-2.45
X4.4312Y-2.55
X4.4312Y-2.65
X4.4312Y-2.75
X4.4312Y-2.85
X4.4312Y-2.95
X4.4312Y-3.05
X4.4312Y-3.15
X4.4312Y-3.25
X4.4312Y-3.35
X4.4312Y-3.45
X4.4312Y-3.55
X4.4312Y-3.65
X4.4312Y-3.75
X4.4312Y-3.85
X4.4312Y-3.95
X4.6812Y-3.9409
X4.7812Y-3.9409
X4.8812Y-3.9409
X5.1312Y-2.05
X5.1312Y-2.15
X5.1312Y-2.25
X5.1312Y-2.35
X5.1312Y-2.45
X5.1312Y-2.55
X5.1312Y-2.65
X5.1312Y-2.75
X5.1312Y-2.85
X5.1312Y-2.95
X5.1312Y-3.05
X5.1312Y-3.15
X5.1312Y-3.25
X5.1312Y-3.35
X5.1312Y-3.45
X5.1312Y-3.55
X5.1312Y-3.65
X5.1312Y-3.75
X5.1312Y-3.85
X5.1312Y-3.95
T6
X6.2953Y-1.5561
X6.2953Y-1.997
T5
G00X5.7081Y-2.7303
M15
G01X5.6606Y-2.805
M16
G05
G00X5.7081Y-3.4803
M15
G01X5.6606Y-3.555
M16
G05
G00X5.9125Y-2.7063
M15
G01X5.9109Y-2.7291
M16
G05
G00X5.9125Y-3.4563
M15
G01X5.9109Y-3.4791
M16
G05
G00X6.4581Y-2.7303
M15
G01X6.4106Y-2.805
M16
G05
G00X6.4581Y-3.4803
M15
G01X6.4106Y-3.555
M16
G05
G00X6.6625Y-2.7063
M15
G01X6.6609Y-2.7291
M16
G05
G00X6.6625Y-3.4563
M15
G01X6.6609Y-3.4791
M16
G05
G00X7.2081Y-2.7303
M15
G01X7.1606Y-2.805
M16
G05
G00X7.2081Y-3.4803
M15
G01X7.1606Y-3.555
M16
G05
G00X7.4125Y-2.7063
M15
G01X7.4109Y-2.7291
M16
G05
G00X7.4125Y-3.4563
M15
G01X7.4109Y-3.4791
M16
G05
T0
M30
