M48
; DRILL file {KiCad (5.1.9)-1} date 02/07/21 17:15:18
; FORMAT={-:-/ absolute / inch / decimal}
; #@! TF.CreationDate,2021-02-07T17:15:18-05:00
; #@! TF.GenerationSoftware,Kicad,Pcbnew,(5.1.9)-1
; #@! TF.FileFunction,NonPlated,1,2,NPTH
FMAT,2
INCH
T1C0.0591
T2C0.0670
T3C0.0709
T4C0.0866
T5C0.1570
%
G90
G05
T1
X4.6858Y-2.1744
X4.8767Y-2.1744
T2
X5.6125Y-2.9062
X5.6125Y-3.6562
X6.0125Y-2.9062
X6.0125Y-3.6562
X6.3625Y-2.9062
X6.3625Y-3.6562
X6.7625Y-2.9062
X6.7625Y-3.6562
X7.1125Y-2.9062
X7.1125Y-3.6562
X7.5125Y-2.9062
X7.5125Y-3.6562
T3
X4.674Y-2.0551
X4.8885Y-2.0551
T4
X4.3602Y-1.4378
X5.4098Y-4.0189
X7.6732Y-4.0799
X7.6827Y-1.4248
T5
X5.8125Y-2.9062
X5.8125Y-3.6562
X6.5625Y-2.9062
X6.5625Y-3.6562
X7.3125Y-2.9062
X7.3125Y-3.6562
T0
M30
