%TF.GenerationSoftware,KiCad,Pcbnew,(5.1.9)-1*%
%TF.CreationDate,2021-02-07T17:12:47-05:00*%
%TF.ProjectId,MacroBoard,4d616372-6f42-46f6-9172-642e6b696361,rev?*%
%TF.SameCoordinates,Original*%
%TF.FileFunction,Legend,Top*%
%TF.FilePolarity,Positive*%
%FSLAX46Y46*%
G04 Gerber Fmt 4.6, Leading zero omitted, Abs format (unit mm)*
G04 Created by KiCad (PCBNEW (5.1.9)-1) date 2021-02-07 17:12:47*
%MOMM*%
%LPD*%
G01*
G04 APERTURE LIST*
%ADD10C,0.120000*%
%ADD11C,0.200000*%
%ADD12C,0.381000*%
%ADD13C,0.150000*%
G04 APERTURE END LIST*
D10*
%TO.C,U1*%
X122543750Y-101700000D02*
X122943750Y-101700000D01*
X119943750Y-101700000D02*
X120343750Y-101700000D01*
X131943750Y-101700000D02*
X125143750Y-101700000D01*
X131943750Y-91300000D02*
X131943750Y-91700000D01*
X131943750Y-83600000D02*
X131943750Y-84000000D01*
X131943750Y-58200000D02*
X131943750Y-58600000D01*
X131943750Y-50700000D02*
X131943750Y-51000000D01*
X131943750Y-73500000D02*
X131943750Y-73900000D01*
X131943750Y-88700000D02*
X131943750Y-89100000D01*
X131943750Y-68400000D02*
X131943750Y-68800000D01*
X131943750Y-63300000D02*
X131943750Y-63700000D01*
X131943750Y-76000000D02*
X131943750Y-76400000D01*
X131943750Y-81100000D02*
X131943750Y-81500000D01*
X131943750Y-96300000D02*
X131943750Y-96700000D01*
X131943750Y-98900000D02*
X131943750Y-99300000D01*
X131943750Y-93800000D02*
X131943750Y-94200000D01*
X131943750Y-60800000D02*
X131943750Y-61200000D01*
X131943750Y-53100000D02*
X131943750Y-53500000D01*
X131943750Y-55700000D02*
X131943750Y-56100000D01*
X131943750Y-86200000D02*
X131943750Y-86600000D01*
X131943750Y-78500000D02*
X131943750Y-78900000D01*
X131943750Y-70900000D02*
X131943750Y-71300000D01*
X131943750Y-65800000D02*
X131943750Y-66200000D01*
X110943750Y-98900000D02*
X110943750Y-99300000D01*
X110943750Y-96300000D02*
X110943750Y-96700000D01*
X110943750Y-93800000D02*
X110943750Y-94200000D01*
X110943750Y-91300000D02*
X110943750Y-91700000D01*
X110943750Y-88700000D02*
X110943750Y-89100000D01*
X110943750Y-86200000D02*
X110943750Y-86600000D01*
X110943750Y-83600000D02*
X110943750Y-84000000D01*
X110943750Y-81100000D02*
X110943750Y-81500000D01*
X110943750Y-78500000D02*
X110943750Y-78900000D01*
X110943750Y-76000000D02*
X110943750Y-76400000D01*
X110943750Y-73500000D02*
X110943750Y-73900000D01*
X110943750Y-70900000D02*
X110943750Y-71300000D01*
X110943750Y-68400000D02*
X110943750Y-68800000D01*
X110943750Y-65800000D02*
X110943750Y-66200000D01*
X110943750Y-63300000D02*
X110943750Y-63700000D01*
X110943750Y-60800000D02*
X110943750Y-61200000D01*
X110943750Y-58200000D02*
X110943750Y-58600000D01*
X110943750Y-55700000D02*
X110943750Y-56100000D01*
X110943750Y-53100000D02*
X110943750Y-53500000D01*
X110943750Y-50700000D02*
X110943750Y-51000000D01*
X113950750Y-53367000D02*
X113950750Y-50700000D01*
X110943750Y-53367000D02*
X113950750Y-53367000D01*
X117743750Y-101700000D02*
X110943750Y-101700000D01*
X110943750Y-50700000D02*
X131943750Y-50700000D01*
D11*
%TO.C,D5*%
X184057969Y-60712552D02*
X184057969Y-63112552D01*
X183882969Y-60712552D02*
X183882969Y-63112552D01*
X183707969Y-60712552D02*
X183707969Y-63112552D01*
X183307969Y-63112552D02*
X183307969Y-60712552D01*
X183532969Y-60712552D02*
X183532969Y-63112552D01*
X183407969Y-60712552D02*
X183407969Y-63112552D01*
X183332969Y-60712552D02*
X189132969Y-60712552D01*
X189132969Y-60712552D02*
X189132969Y-63112552D01*
X189132969Y-63112552D02*
X183332969Y-63112552D01*
%TO.C,D6*%
X164412640Y-61307865D02*
X164412640Y-63707865D01*
X164237640Y-61307865D02*
X164237640Y-63707865D01*
X164062640Y-61307865D02*
X164062640Y-63707865D01*
X163662640Y-63707865D02*
X163662640Y-61307865D01*
X163887640Y-61307865D02*
X163887640Y-63707865D01*
X163762640Y-61307865D02*
X163762640Y-63707865D01*
X163687640Y-61307865D02*
X169487640Y-61307865D01*
X169487640Y-61307865D02*
X169487640Y-63707865D01*
X169487640Y-63707865D02*
X163687640Y-63707865D01*
%TO.C,D7*%
X188537656Y-105975088D02*
X182737656Y-105975088D01*
X188537656Y-103575088D02*
X188537656Y-105975088D01*
X182737656Y-103575088D02*
X188537656Y-103575088D01*
X182812656Y-103575088D02*
X182812656Y-105975088D01*
X182937656Y-103575088D02*
X182937656Y-105975088D01*
X182712656Y-105975088D02*
X182712656Y-103575088D01*
X183112656Y-103575088D02*
X183112656Y-105975088D01*
X183287656Y-103575088D02*
X183287656Y-105975088D01*
X183462656Y-103575088D02*
X183462656Y-105975088D01*
%TO.C,D8*%
X151032937Y-105975088D02*
X145232937Y-105975088D01*
X151032937Y-103575088D02*
X151032937Y-105975088D01*
X145232937Y-103575088D02*
X151032937Y-103575088D01*
X145307937Y-103575088D02*
X145307937Y-105975088D01*
X145432937Y-103575088D02*
X145432937Y-105975088D01*
X145207937Y-105975088D02*
X145207937Y-103575088D01*
X145607937Y-103575088D02*
X145607937Y-105975088D01*
X145782937Y-103575088D02*
X145782937Y-105975088D01*
X145957937Y-103575088D02*
X145957937Y-105975088D01*
%TO.C,D9*%
X170082953Y-105975088D02*
X164282953Y-105975088D01*
X170082953Y-103575088D02*
X170082953Y-105975088D01*
X164282953Y-103575088D02*
X170082953Y-103575088D01*
X164357953Y-103575088D02*
X164357953Y-105975088D01*
X164482953Y-103575088D02*
X164482953Y-105975088D01*
X164257953Y-105975088D02*
X164257953Y-103575088D01*
X164657953Y-103575088D02*
X164657953Y-105975088D01*
X164832953Y-103575088D02*
X164832953Y-105975088D01*
X165007953Y-103575088D02*
X165007953Y-105975088D01*
%TO.C,D10*%
X144171998Y-61307865D02*
X144171998Y-63707865D01*
X143996998Y-61307865D02*
X143996998Y-63707865D01*
X143821998Y-61307865D02*
X143821998Y-63707865D01*
X143421998Y-63707865D02*
X143421998Y-61307865D01*
X143646998Y-61307865D02*
X143646998Y-63707865D01*
X143521998Y-61307865D02*
X143521998Y-63707865D01*
X143446998Y-61307865D02*
X149246998Y-61307865D01*
X149246998Y-61307865D02*
X149246998Y-63707865D01*
X149246998Y-63707865D02*
X143446998Y-63707865D01*
D12*
%TO.C,K1*%
X160337500Y-67468750D02*
X162115500Y-67468750D01*
X171259500Y-67468750D02*
X173037500Y-67468750D01*
X173037500Y-67468750D02*
X173037500Y-69246750D01*
X173037500Y-78390750D02*
X173037500Y-80168750D01*
X173037500Y-80168750D02*
X171259500Y-80168750D01*
X162115500Y-80168750D02*
X160337500Y-80168750D01*
X160337500Y-80168750D02*
X160337500Y-78390750D01*
X160337500Y-69246750D02*
X160337500Y-67468750D01*
%TO.C,K2*%
X179387500Y-86518750D02*
X181165500Y-86518750D01*
X190309500Y-86518750D02*
X192087500Y-86518750D01*
X192087500Y-86518750D02*
X192087500Y-88296750D01*
X192087500Y-97440750D02*
X192087500Y-99218750D01*
X192087500Y-99218750D02*
X190309500Y-99218750D01*
X181165500Y-99218750D02*
X179387500Y-99218750D01*
X179387500Y-99218750D02*
X179387500Y-97440750D01*
X179387500Y-88296750D02*
X179387500Y-86518750D01*
%TO.C,K3*%
X141287500Y-88296750D02*
X141287500Y-86518750D01*
X141287500Y-99218750D02*
X141287500Y-97440750D01*
X143065500Y-99218750D02*
X141287500Y-99218750D01*
X153987500Y-99218750D02*
X152209500Y-99218750D01*
X153987500Y-97440750D02*
X153987500Y-99218750D01*
X153987500Y-86518750D02*
X153987500Y-88296750D01*
X152209500Y-86518750D02*
X153987500Y-86518750D01*
X141287500Y-86518750D02*
X143065500Y-86518750D01*
%TO.C,K4*%
X160337500Y-88296750D02*
X160337500Y-86518750D01*
X160337500Y-99218750D02*
X160337500Y-97440750D01*
X162115500Y-99218750D02*
X160337500Y-99218750D01*
X173037500Y-99218750D02*
X171259500Y-99218750D01*
X173037500Y-97440750D02*
X173037500Y-99218750D01*
X173037500Y-86518750D02*
X173037500Y-88296750D01*
X171259500Y-86518750D02*
X173037500Y-86518750D01*
X160337500Y-86518750D02*
X162115500Y-86518750D01*
%TO.C,K5*%
X141287500Y-67468750D02*
X143065500Y-67468750D01*
X152209500Y-67468750D02*
X153987500Y-67468750D01*
X153987500Y-67468750D02*
X153987500Y-69246750D01*
X153987500Y-78390750D02*
X153987500Y-80168750D01*
X153987500Y-80168750D02*
X152209500Y-80168750D01*
X143065500Y-80168750D02*
X141287500Y-80168750D01*
X141287500Y-80168750D02*
X141287500Y-78390750D01*
X141287500Y-69246750D02*
X141287500Y-67468750D01*
%TO.C,K?1*%
X179387500Y-69246750D02*
X179387500Y-67468750D01*
X179387500Y-80168750D02*
X179387500Y-78390750D01*
X181165500Y-80168750D02*
X179387500Y-80168750D01*
X192087500Y-80168750D02*
X190309500Y-80168750D01*
X192087500Y-78390750D02*
X192087500Y-80168750D01*
X192087500Y-67468750D02*
X192087500Y-69246750D01*
X190309500Y-67468750D02*
X192087500Y-67468750D01*
X179387500Y-67468750D02*
X181165500Y-67468750D01*
D10*
%TO.C,R1*%
X177179905Y-51638185D02*
G75*
G02*
X177082867Y-53087544I320095J-749359D01*
G01*
%TO.C,R2*%
X176929905Y-44250641D02*
G75*
G02*
X176832867Y-45700000I320095J-749359D01*
G01*
%TO.C,R3*%
X176829905Y-37350673D02*
G75*
G02*
X176732867Y-38800032I320095J-749359D01*
G01*
%TO.C,R4*%
X132820095Y-38999359D02*
G75*
G02*
X132917133Y-37550000I-320095J749359D01*
G01*
%TO.C,  *%
D13*
%TO.C, *%
%TO.C,U1*%
X120681845Y-75652380D02*
X120681845Y-76461904D01*
X120729464Y-76557142D01*
X120777083Y-76604761D01*
X120872321Y-76652380D01*
X121062797Y-76652380D01*
X121158035Y-76604761D01*
X121205654Y-76557142D01*
X121253273Y-76461904D01*
X121253273Y-75652380D01*
X122253273Y-76652380D02*
X121681845Y-76652380D01*
X121967559Y-76652380D02*
X121967559Y-75652380D01*
X121872321Y-75795238D01*
X121777083Y-75890476D01*
X121681845Y-75938095D01*
X107856846Y-54721218D02*
X107776034Y-54748155D01*
X107695221Y-54828967D01*
X107641347Y-54936717D01*
X107641347Y-55044467D01*
X107668284Y-55125279D01*
X107749096Y-55259966D01*
X107829908Y-55340778D01*
X107964595Y-55421590D01*
X108045408Y-55448528D01*
X108153157Y-55448528D01*
X108260907Y-55394653D01*
X108314782Y-55340778D01*
X108368656Y-55233028D01*
X108368656Y-55179154D01*
X108180095Y-54990592D01*
X108072345Y-55098341D01*
X108664968Y-54990592D02*
X108099282Y-54424906D01*
X108314782Y-54209407D01*
X108395594Y-54182470D01*
X108449469Y-54182470D01*
X108530281Y-54209407D01*
X108611093Y-54290219D01*
X108638030Y-54371032D01*
X108638030Y-54424906D01*
X108611093Y-54505719D01*
X108395594Y-54721218D01*
X109526965Y-54128595D02*
X109203716Y-54451844D01*
X109365340Y-54290219D02*
X108799655Y-53724534D01*
X108826592Y-53859221D01*
X108826592Y-53966971D01*
X108799655Y-54047783D01*
X107856846Y-59811218D02*
X107776034Y-59838155D01*
X107695221Y-59918967D01*
X107641347Y-60026717D01*
X107641347Y-60134467D01*
X107668284Y-60215279D01*
X107749096Y-60349966D01*
X107829908Y-60430778D01*
X107964595Y-60511590D01*
X108045408Y-60538528D01*
X108153157Y-60538528D01*
X108260907Y-60484653D01*
X108314782Y-60430778D01*
X108368656Y-60323028D01*
X108368656Y-60269154D01*
X108180095Y-60080592D01*
X108072345Y-60188341D01*
X108664968Y-60080592D02*
X108099282Y-59514906D01*
X108314782Y-59299407D01*
X108395594Y-59272470D01*
X108449469Y-59272470D01*
X108530281Y-59299407D01*
X108611093Y-59380219D01*
X108638030Y-59461032D01*
X108638030Y-59514906D01*
X108611093Y-59595719D01*
X108395594Y-59811218D01*
X108691905Y-59030033D02*
X108691905Y-58976158D01*
X108718843Y-58895346D01*
X108853530Y-58760659D01*
X108934342Y-58733722D01*
X108988217Y-58733722D01*
X109069029Y-58760659D01*
X109122904Y-58814534D01*
X109176778Y-58922284D01*
X109176778Y-59568781D01*
X109526965Y-59218595D01*
X107956846Y-52191218D02*
X107876034Y-52218155D01*
X107795221Y-52298967D01*
X107741347Y-52406717D01*
X107741347Y-52514467D01*
X107768284Y-52595279D01*
X107849096Y-52729966D01*
X107929908Y-52810778D01*
X108064595Y-52891590D01*
X108145408Y-52918528D01*
X108253157Y-52918528D01*
X108360907Y-52864653D01*
X108414782Y-52810778D01*
X108468656Y-52703028D01*
X108468656Y-52649154D01*
X108280095Y-52460592D01*
X108172345Y-52568341D01*
X108764968Y-52460592D02*
X108199282Y-51894906D01*
X108414782Y-51679407D01*
X108495594Y-51652470D01*
X108549469Y-51652470D01*
X108630281Y-51679407D01*
X108711093Y-51760219D01*
X108738030Y-51841032D01*
X108738030Y-51894906D01*
X108711093Y-51975719D01*
X108495594Y-52191218D01*
X108872717Y-51221471D02*
X108926592Y-51167597D01*
X109007404Y-51140659D01*
X109061279Y-51140659D01*
X109142091Y-51167597D01*
X109276778Y-51248409D01*
X109411465Y-51383096D01*
X109492278Y-51517783D01*
X109519215Y-51598595D01*
X109519215Y-51652470D01*
X109492278Y-51733282D01*
X109438403Y-51787157D01*
X109357591Y-51814094D01*
X109303716Y-51814094D01*
X109222904Y-51787157D01*
X109088217Y-51706345D01*
X108953530Y-51571658D01*
X108872717Y-51436971D01*
X108845780Y-51356158D01*
X108845780Y-51302284D01*
X108872717Y-51221471D01*
X107956846Y-62351218D02*
X107876034Y-62378155D01*
X107795221Y-62458967D01*
X107741347Y-62566717D01*
X107741347Y-62674467D01*
X107768284Y-62755279D01*
X107849096Y-62889966D01*
X107929908Y-62970778D01*
X108064595Y-63051590D01*
X108145408Y-63078528D01*
X108253157Y-63078528D01*
X108360907Y-63024653D01*
X108414782Y-62970778D01*
X108468656Y-62863028D01*
X108468656Y-62809154D01*
X108280095Y-62620592D01*
X108172345Y-62728341D01*
X108764968Y-62620592D02*
X108199282Y-62054906D01*
X108414782Y-61839407D01*
X108495594Y-61812470D01*
X108549469Y-61812470D01*
X108630281Y-61839407D01*
X108711093Y-61920219D01*
X108738030Y-62001032D01*
X108738030Y-62054906D01*
X108711093Y-62135719D01*
X108495594Y-62351218D01*
X108711093Y-61543096D02*
X109061279Y-61192910D01*
X109088217Y-61596971D01*
X109169029Y-61516158D01*
X109249841Y-61489221D01*
X109303716Y-61489221D01*
X109384528Y-61516158D01*
X109519215Y-61650845D01*
X109546152Y-61731658D01*
X109546152Y-61785532D01*
X109519215Y-61866345D01*
X109357591Y-62027969D01*
X109276778Y-62054906D01*
X109222904Y-62054906D01*
X107956846Y-64891218D02*
X107876034Y-64918155D01*
X107795221Y-64998967D01*
X107741347Y-65106717D01*
X107741347Y-65214467D01*
X107768284Y-65295279D01*
X107849096Y-65429966D01*
X107929908Y-65510778D01*
X108064595Y-65591590D01*
X108145408Y-65618528D01*
X108253157Y-65618528D01*
X108360907Y-65564653D01*
X108414782Y-65510778D01*
X108468656Y-65403028D01*
X108468656Y-65349154D01*
X108280095Y-65160592D01*
X108172345Y-65268341D01*
X108764968Y-65160592D02*
X108199282Y-64594906D01*
X108414782Y-64379407D01*
X108495594Y-64352470D01*
X108549469Y-64352470D01*
X108630281Y-64379407D01*
X108711093Y-64460219D01*
X108738030Y-64541032D01*
X108738030Y-64594906D01*
X108711093Y-64675719D01*
X108495594Y-64891218D01*
X109195966Y-63975346D02*
X109573090Y-64352470D01*
X108845780Y-63894534D02*
X109115154Y-64433282D01*
X109465340Y-64083096D01*
X107956846Y-67431218D02*
X107876034Y-67458155D01*
X107795221Y-67538967D01*
X107741347Y-67646717D01*
X107741347Y-67754467D01*
X107768284Y-67835279D01*
X107849096Y-67969966D01*
X107929908Y-68050778D01*
X108064595Y-68131590D01*
X108145408Y-68158528D01*
X108253157Y-68158528D01*
X108360907Y-68104653D01*
X108414782Y-68050778D01*
X108468656Y-67943028D01*
X108468656Y-67889154D01*
X108280095Y-67700592D01*
X108172345Y-67808341D01*
X108764968Y-67700592D02*
X108199282Y-67134906D01*
X108414782Y-66919407D01*
X108495594Y-66892470D01*
X108549469Y-66892470D01*
X108630281Y-66919407D01*
X108711093Y-67000219D01*
X108738030Y-67081032D01*
X108738030Y-67134906D01*
X108711093Y-67215719D01*
X108495594Y-67431218D01*
X109034342Y-66299847D02*
X108764968Y-66569221D01*
X109007404Y-66865532D01*
X109007404Y-66811658D01*
X109034342Y-66730845D01*
X109169029Y-66596158D01*
X109249841Y-66569221D01*
X109303716Y-66569221D01*
X109384528Y-66596158D01*
X109519215Y-66730845D01*
X109546152Y-66811658D01*
X109546152Y-66865532D01*
X109519215Y-66946345D01*
X109384528Y-67081032D01*
X109303716Y-67107969D01*
X109249841Y-67107969D01*
X107956846Y-72511218D02*
X107876034Y-72538155D01*
X107795221Y-72618967D01*
X107741347Y-72726717D01*
X107741347Y-72834467D01*
X107768284Y-72915279D01*
X107849096Y-73049966D01*
X107929908Y-73130778D01*
X108064595Y-73211590D01*
X108145408Y-73238528D01*
X108253157Y-73238528D01*
X108360907Y-73184653D01*
X108414782Y-73130778D01*
X108468656Y-73023028D01*
X108468656Y-72969154D01*
X108280095Y-72780592D01*
X108172345Y-72888341D01*
X108764968Y-72780592D02*
X108199282Y-72214906D01*
X108414782Y-71999407D01*
X108495594Y-71972470D01*
X108549469Y-71972470D01*
X108630281Y-71999407D01*
X108711093Y-72080219D01*
X108738030Y-72161032D01*
X108738030Y-72214906D01*
X108711093Y-72295719D01*
X108495594Y-72511218D01*
X109007404Y-71406784D02*
X108899655Y-71514534D01*
X108872717Y-71595346D01*
X108872717Y-71649221D01*
X108899655Y-71783908D01*
X108980467Y-71918595D01*
X109195966Y-72134094D01*
X109276778Y-72161032D01*
X109330653Y-72161032D01*
X109411465Y-72134094D01*
X109519215Y-72026345D01*
X109546152Y-71945532D01*
X109546152Y-71891658D01*
X109519215Y-71810845D01*
X109384528Y-71676158D01*
X109303716Y-71649221D01*
X109249841Y-71649221D01*
X109169029Y-71676158D01*
X109061279Y-71783908D01*
X109034342Y-71864720D01*
X109034342Y-71918595D01*
X109061279Y-71999407D01*
X108056846Y-75021218D02*
X107976034Y-75048155D01*
X107895221Y-75128967D01*
X107841347Y-75236717D01*
X107841347Y-75344467D01*
X107868284Y-75425279D01*
X107949096Y-75559966D01*
X108029908Y-75640778D01*
X108164595Y-75721590D01*
X108245408Y-75748528D01*
X108353157Y-75748528D01*
X108460907Y-75694653D01*
X108514782Y-75640778D01*
X108568656Y-75533028D01*
X108568656Y-75479154D01*
X108380095Y-75290592D01*
X108272345Y-75398341D01*
X108864968Y-75290592D02*
X108299282Y-74724906D01*
X108514782Y-74509407D01*
X108595594Y-74482470D01*
X108649469Y-74482470D01*
X108730281Y-74509407D01*
X108811093Y-74590219D01*
X108838030Y-74671032D01*
X108838030Y-74724906D01*
X108811093Y-74805719D01*
X108595594Y-75021218D01*
X108811093Y-74213096D02*
X109188217Y-73835972D01*
X109511465Y-74644094D01*
X107956846Y-77591218D02*
X107876034Y-77618155D01*
X107795221Y-77698967D01*
X107741347Y-77806717D01*
X107741347Y-77914467D01*
X107768284Y-77995279D01*
X107849096Y-78129966D01*
X107929908Y-78210778D01*
X108064595Y-78291590D01*
X108145408Y-78318528D01*
X108253157Y-78318528D01*
X108360907Y-78264653D01*
X108414782Y-78210778D01*
X108468656Y-78103028D01*
X108468656Y-78049154D01*
X108280095Y-77860592D01*
X108172345Y-77968341D01*
X108764968Y-77860592D02*
X108199282Y-77294906D01*
X108414782Y-77079407D01*
X108495594Y-77052470D01*
X108549469Y-77052470D01*
X108630281Y-77079407D01*
X108711093Y-77160219D01*
X108738030Y-77241032D01*
X108738030Y-77294906D01*
X108711093Y-77375719D01*
X108495594Y-77591218D01*
X109088217Y-76890845D02*
X109007404Y-76917783D01*
X108953530Y-76917783D01*
X108872717Y-76890845D01*
X108845780Y-76863908D01*
X108818843Y-76783096D01*
X108818843Y-76729221D01*
X108845780Y-76648409D01*
X108953530Y-76540659D01*
X109034342Y-76513722D01*
X109088217Y-76513722D01*
X109169029Y-76540659D01*
X109195966Y-76567597D01*
X109222904Y-76648409D01*
X109222904Y-76702284D01*
X109195966Y-76783096D01*
X109088217Y-76890845D01*
X109061279Y-76971658D01*
X109061279Y-77025532D01*
X109088217Y-77106345D01*
X109195966Y-77214094D01*
X109276778Y-77241032D01*
X109330653Y-77241032D01*
X109411465Y-77214094D01*
X109519215Y-77106345D01*
X109546152Y-77025532D01*
X109546152Y-76971658D01*
X109519215Y-76890845D01*
X109411465Y-76783096D01*
X109330653Y-76756158D01*
X109276778Y-76756158D01*
X109195966Y-76783096D01*
X107956846Y-80131218D02*
X107876034Y-80158155D01*
X107795221Y-80238967D01*
X107741347Y-80346717D01*
X107741347Y-80454467D01*
X107768284Y-80535279D01*
X107849096Y-80669966D01*
X107929908Y-80750778D01*
X108064595Y-80831590D01*
X108145408Y-80858528D01*
X108253157Y-80858528D01*
X108360907Y-80804653D01*
X108414782Y-80750778D01*
X108468656Y-80643028D01*
X108468656Y-80589154D01*
X108280095Y-80400592D01*
X108172345Y-80508341D01*
X108764968Y-80400592D02*
X108199282Y-79834906D01*
X108414782Y-79619407D01*
X108495594Y-79592470D01*
X108549469Y-79592470D01*
X108630281Y-79619407D01*
X108711093Y-79700219D01*
X108738030Y-79781032D01*
X108738030Y-79834906D01*
X108711093Y-79915719D01*
X108495594Y-80131218D01*
X109357591Y-79807969D02*
X109465340Y-79700219D01*
X109492278Y-79619407D01*
X109492278Y-79565532D01*
X109465340Y-79430845D01*
X109384528Y-79296158D01*
X109169029Y-79080659D01*
X109088217Y-79053722D01*
X109034342Y-79053722D01*
X108953530Y-79080659D01*
X108845780Y-79188409D01*
X108818843Y-79269221D01*
X108818843Y-79323096D01*
X108845780Y-79403908D01*
X108980467Y-79538595D01*
X109061279Y-79565532D01*
X109115154Y-79565532D01*
X109195966Y-79538595D01*
X109303716Y-79430845D01*
X109330653Y-79350033D01*
X109330653Y-79296158D01*
X109303716Y-79215346D01*
X107433472Y-85480592D02*
X107352660Y-85507529D01*
X107271847Y-85588341D01*
X107217973Y-85696091D01*
X107217973Y-85803841D01*
X107244910Y-85884653D01*
X107325722Y-86019340D01*
X107406534Y-86100152D01*
X107541221Y-86180964D01*
X107622034Y-86207902D01*
X107729783Y-86207902D01*
X107837533Y-86154027D01*
X107891408Y-86100152D01*
X107945282Y-85992402D01*
X107945282Y-85938528D01*
X107756721Y-85749966D01*
X107648971Y-85857715D01*
X108241594Y-85749966D02*
X107675908Y-85184280D01*
X107891408Y-84968781D01*
X107972220Y-84941844D01*
X108026095Y-84941844D01*
X108106907Y-84968781D01*
X108187719Y-85049593D01*
X108214656Y-85130406D01*
X108214656Y-85184280D01*
X108187719Y-85265093D01*
X107972220Y-85480592D01*
X109103591Y-84887969D02*
X108780342Y-85211218D01*
X108941966Y-85049593D02*
X108376281Y-84483908D01*
X108403218Y-84618595D01*
X108403218Y-84726345D01*
X108376281Y-84807157D01*
X108888091Y-83972097D02*
X108941966Y-83918223D01*
X109022778Y-83891285D01*
X109076653Y-83891285D01*
X109157465Y-83918223D01*
X109292152Y-83999035D01*
X109426839Y-84133722D01*
X109507652Y-84268409D01*
X109534589Y-84349221D01*
X109534589Y-84403096D01*
X109507652Y-84483908D01*
X109453777Y-84537783D01*
X109372965Y-84564720D01*
X109319090Y-84564720D01*
X109238278Y-84537783D01*
X109103591Y-84456971D01*
X108968904Y-84322284D01*
X108888091Y-84187597D01*
X108861154Y-84106784D01*
X108861154Y-84052910D01*
X108888091Y-83972097D01*
X107287472Y-88020592D02*
X107206660Y-88047529D01*
X107125847Y-88128341D01*
X107071973Y-88236091D01*
X107071973Y-88343841D01*
X107098910Y-88424653D01*
X107179722Y-88559340D01*
X107260534Y-88640152D01*
X107395221Y-88720964D01*
X107476034Y-88747902D01*
X107583783Y-88747902D01*
X107691533Y-88694027D01*
X107745408Y-88640152D01*
X107799282Y-88532402D01*
X107799282Y-88478528D01*
X107610721Y-88289966D01*
X107502971Y-88397715D01*
X108095594Y-88289966D02*
X107529908Y-87724280D01*
X107745408Y-87508781D01*
X107826220Y-87481844D01*
X107880095Y-87481844D01*
X107960907Y-87508781D01*
X108041719Y-87589593D01*
X108068656Y-87670406D01*
X108068656Y-87724280D01*
X108041719Y-87805093D01*
X107826220Y-88020592D01*
X108957591Y-87427969D02*
X108634342Y-87751218D01*
X108795966Y-87589593D02*
X108230281Y-87023908D01*
X108257218Y-87158595D01*
X108257218Y-87266345D01*
X108230281Y-87347157D01*
X109496339Y-86889221D02*
X109173090Y-87212470D01*
X109334714Y-87050845D02*
X108769029Y-86485160D01*
X108795966Y-86619847D01*
X108795966Y-86727597D01*
X108769029Y-86808409D01*
X107287472Y-90560592D02*
X107206660Y-90587529D01*
X107125847Y-90668341D01*
X107071973Y-90776091D01*
X107071973Y-90883841D01*
X107098910Y-90964653D01*
X107179722Y-91099340D01*
X107260534Y-91180152D01*
X107395221Y-91260964D01*
X107476034Y-91287902D01*
X107583783Y-91287902D01*
X107691533Y-91234027D01*
X107745408Y-91180152D01*
X107799282Y-91072402D01*
X107799282Y-91018528D01*
X107610721Y-90829966D01*
X107502971Y-90937715D01*
X108095594Y-90829966D02*
X107529908Y-90264280D01*
X107745408Y-90048781D01*
X107826220Y-90021844D01*
X107880095Y-90021844D01*
X107960907Y-90048781D01*
X108041719Y-90129593D01*
X108068656Y-90210406D01*
X108068656Y-90264280D01*
X108041719Y-90345093D01*
X107826220Y-90560592D01*
X108957591Y-89967969D02*
X108634342Y-90291218D01*
X108795966Y-90129593D02*
X108230281Y-89563908D01*
X108257218Y-89698595D01*
X108257218Y-89806345D01*
X108230281Y-89887157D01*
X108661279Y-89240659D02*
X108661279Y-89186784D01*
X108688217Y-89105972D01*
X108822904Y-88971285D01*
X108903716Y-88944348D01*
X108957591Y-88944348D01*
X109038403Y-88971285D01*
X109092278Y-89025160D01*
X109146152Y-89132910D01*
X109146152Y-89779407D01*
X109496339Y-89429221D01*
X107433472Y-93100592D02*
X107352660Y-93127529D01*
X107271847Y-93208341D01*
X107217973Y-93316091D01*
X107217973Y-93423841D01*
X107244910Y-93504653D01*
X107325722Y-93639340D01*
X107406534Y-93720152D01*
X107541221Y-93800964D01*
X107622034Y-93827902D01*
X107729783Y-93827902D01*
X107837533Y-93774027D01*
X107891408Y-93720152D01*
X107945282Y-93612402D01*
X107945282Y-93558528D01*
X107756721Y-93369966D01*
X107648971Y-93477715D01*
X108241594Y-93369966D02*
X107675908Y-92804280D01*
X107891408Y-92588781D01*
X107972220Y-92561844D01*
X108026095Y-92561844D01*
X108106907Y-92588781D01*
X108187719Y-92669593D01*
X108214656Y-92750406D01*
X108214656Y-92804280D01*
X108187719Y-92885093D01*
X107972220Y-93100592D01*
X109103591Y-92507969D02*
X108780342Y-92831218D01*
X108941966Y-92669593D02*
X108376281Y-92103908D01*
X108403218Y-92238595D01*
X108403218Y-92346345D01*
X108376281Y-92427157D01*
X108726467Y-91753722D02*
X109076653Y-91403536D01*
X109103591Y-91807597D01*
X109184403Y-91726784D01*
X109265215Y-91699847D01*
X109319090Y-91699847D01*
X109399902Y-91726784D01*
X109534589Y-91861471D01*
X109561526Y-91942284D01*
X109561526Y-91996158D01*
X109534589Y-92076971D01*
X109372965Y-92238595D01*
X109292152Y-92265532D01*
X109238278Y-92265532D01*
X107387472Y-98180592D02*
X107306660Y-98207529D01*
X107225847Y-98288341D01*
X107171973Y-98396091D01*
X107171973Y-98503841D01*
X107198910Y-98584653D01*
X107279722Y-98719340D01*
X107360534Y-98800152D01*
X107495221Y-98880964D01*
X107576034Y-98907902D01*
X107683783Y-98907902D01*
X107791533Y-98854027D01*
X107845408Y-98800152D01*
X107899282Y-98692402D01*
X107899282Y-98638528D01*
X107710721Y-98449966D01*
X107602971Y-98557715D01*
X108195594Y-98449966D02*
X107629908Y-97884280D01*
X107845408Y-97668781D01*
X107926220Y-97641844D01*
X107980095Y-97641844D01*
X108060907Y-97668781D01*
X108141719Y-97749593D01*
X108168656Y-97830406D01*
X108168656Y-97884280D01*
X108141719Y-97965093D01*
X107926220Y-98180592D01*
X109057591Y-97587969D02*
X108734342Y-97911218D01*
X108895966Y-97749593D02*
X108330281Y-97183908D01*
X108357218Y-97318595D01*
X108357218Y-97426345D01*
X108330281Y-97507157D01*
X109165340Y-96725972D02*
X109542464Y-97103096D01*
X108815154Y-96645160D02*
X109084528Y-97183908D01*
X109434714Y-96833722D01*
X107433472Y-100720592D02*
X107352660Y-100747529D01*
X107271847Y-100828341D01*
X107217973Y-100936091D01*
X107217973Y-101043841D01*
X107244910Y-101124653D01*
X107325722Y-101259340D01*
X107406534Y-101340152D01*
X107541221Y-101420964D01*
X107622034Y-101447902D01*
X107729783Y-101447902D01*
X107837533Y-101394027D01*
X107891408Y-101340152D01*
X107945282Y-101232402D01*
X107945282Y-101178528D01*
X107756721Y-100989966D01*
X107648971Y-101097715D01*
X108241594Y-100989966D02*
X107675908Y-100424280D01*
X107891408Y-100208781D01*
X107972220Y-100181844D01*
X108026095Y-100181844D01*
X108106907Y-100208781D01*
X108187719Y-100289593D01*
X108214656Y-100370406D01*
X108214656Y-100424280D01*
X108187719Y-100505093D01*
X107972220Y-100720592D01*
X109103591Y-100127969D02*
X108780342Y-100451218D01*
X108941966Y-100289593D02*
X108376281Y-99723908D01*
X108403218Y-99858595D01*
X108403218Y-99966345D01*
X108376281Y-100047157D01*
X109049716Y-99050473D02*
X108780342Y-99319847D01*
X109022778Y-99616158D01*
X109022778Y-99562284D01*
X109049716Y-99481471D01*
X109184403Y-99346784D01*
X109265215Y-99319847D01*
X109319090Y-99319847D01*
X109399902Y-99346784D01*
X109534589Y-99481471D01*
X109561526Y-99562284D01*
X109561526Y-99616158D01*
X109534589Y-99696971D01*
X109399902Y-99831658D01*
X109319090Y-99858595D01*
X109265215Y-99858595D01*
X133541472Y-100720592D02*
X133460660Y-100747529D01*
X133379847Y-100828341D01*
X133325973Y-100936091D01*
X133325973Y-101043841D01*
X133352910Y-101124653D01*
X133433722Y-101259340D01*
X133514534Y-101340152D01*
X133649221Y-101420964D01*
X133730034Y-101447902D01*
X133837783Y-101447902D01*
X133945533Y-101394027D01*
X133999408Y-101340152D01*
X134053282Y-101232402D01*
X134053282Y-101178528D01*
X133864721Y-100989966D01*
X133756971Y-101097715D01*
X134349594Y-100989966D02*
X133783908Y-100424280D01*
X133999408Y-100208781D01*
X134080220Y-100181844D01*
X134134095Y-100181844D01*
X134214907Y-100208781D01*
X134295719Y-100289593D01*
X134322656Y-100370406D01*
X134322656Y-100424280D01*
X134295719Y-100505093D01*
X134080220Y-100720592D01*
X135211591Y-100127969D02*
X134888342Y-100451218D01*
X135049966Y-100289593D02*
X134484281Y-99723908D01*
X134511218Y-99858595D01*
X134511218Y-99966345D01*
X134484281Y-100047157D01*
X135130778Y-99077410D02*
X135023029Y-99185160D01*
X134996091Y-99265972D01*
X134996091Y-99319847D01*
X135023029Y-99454534D01*
X135103841Y-99589221D01*
X135319340Y-99804720D01*
X135400152Y-99831658D01*
X135454027Y-99831658D01*
X135534839Y-99804720D01*
X135642589Y-99696971D01*
X135669526Y-99616158D01*
X135669526Y-99562284D01*
X135642589Y-99481471D01*
X135507902Y-99346784D01*
X135427090Y-99319847D01*
X135373215Y-99319847D01*
X135292403Y-99346784D01*
X135184653Y-99454534D01*
X135157716Y-99535346D01*
X135157716Y-99589221D01*
X135184653Y-99670033D01*
X133541472Y-98180592D02*
X133460660Y-98207529D01*
X133379847Y-98288341D01*
X133325973Y-98396091D01*
X133325973Y-98503841D01*
X133352910Y-98584653D01*
X133433722Y-98719340D01*
X133514534Y-98800152D01*
X133649221Y-98880964D01*
X133730034Y-98907902D01*
X133837783Y-98907902D01*
X133945533Y-98854027D01*
X133999408Y-98800152D01*
X134053282Y-98692402D01*
X134053282Y-98638528D01*
X133864721Y-98449966D01*
X133756971Y-98557715D01*
X134349594Y-98449966D02*
X133783908Y-97884280D01*
X133999408Y-97668781D01*
X134080220Y-97641844D01*
X134134095Y-97641844D01*
X134214907Y-97668781D01*
X134295719Y-97749593D01*
X134322656Y-97830406D01*
X134322656Y-97884280D01*
X134295719Y-97965093D01*
X134080220Y-98180592D01*
X135211591Y-97587969D02*
X134888342Y-97911218D01*
X135049966Y-97749593D02*
X134484281Y-97183908D01*
X134511218Y-97318595D01*
X134511218Y-97426345D01*
X134484281Y-97507157D01*
X134834467Y-96833722D02*
X135211591Y-96456598D01*
X135534839Y-97264720D01*
X133541472Y-93100592D02*
X133460660Y-93127529D01*
X133379847Y-93208341D01*
X133325973Y-93316091D01*
X133325973Y-93423841D01*
X133352910Y-93504653D01*
X133433722Y-93639340D01*
X133514534Y-93720152D01*
X133649221Y-93800964D01*
X133730034Y-93827902D01*
X133837783Y-93827902D01*
X133945533Y-93774027D01*
X133999408Y-93720152D01*
X134053282Y-93612402D01*
X134053282Y-93558528D01*
X133864721Y-93369966D01*
X133756971Y-93477715D01*
X134349594Y-93369966D02*
X133783908Y-92804280D01*
X133999408Y-92588781D01*
X134080220Y-92561844D01*
X134134095Y-92561844D01*
X134214907Y-92588781D01*
X134295719Y-92669593D01*
X134322656Y-92750406D01*
X134322656Y-92804280D01*
X134295719Y-92885093D01*
X134080220Y-93100592D01*
X135211591Y-92507969D02*
X134888342Y-92831218D01*
X135049966Y-92669593D02*
X134484281Y-92103908D01*
X134511218Y-92238595D01*
X134511218Y-92346345D01*
X134484281Y-92427157D01*
X135211591Y-91861471D02*
X135130778Y-91888409D01*
X135076904Y-91888409D01*
X134996091Y-91861471D01*
X134969154Y-91834534D01*
X134942217Y-91753722D01*
X134942217Y-91699847D01*
X134969154Y-91619035D01*
X135076904Y-91511285D01*
X135157716Y-91484348D01*
X135211591Y-91484348D01*
X135292403Y-91511285D01*
X135319340Y-91538223D01*
X135346278Y-91619035D01*
X135346278Y-91672910D01*
X135319340Y-91753722D01*
X135211591Y-91861471D01*
X135184653Y-91942284D01*
X135184653Y-91996158D01*
X135211591Y-92076971D01*
X135319340Y-92184720D01*
X135400152Y-92211658D01*
X135454027Y-92211658D01*
X135534839Y-92184720D01*
X135642589Y-92076971D01*
X135669526Y-91996158D01*
X135669526Y-91942284D01*
X135642589Y-91861471D01*
X135534839Y-91753722D01*
X135454027Y-91726784D01*
X135400152Y-91726784D01*
X135319340Y-91753722D01*
X133541472Y-90560592D02*
X133460660Y-90587529D01*
X133379847Y-90668341D01*
X133325973Y-90776091D01*
X133325973Y-90883841D01*
X133352910Y-90964653D01*
X133433722Y-91099340D01*
X133514534Y-91180152D01*
X133649221Y-91260964D01*
X133730034Y-91287902D01*
X133837783Y-91287902D01*
X133945533Y-91234027D01*
X133999408Y-91180152D01*
X134053282Y-91072402D01*
X134053282Y-91018528D01*
X133864721Y-90829966D01*
X133756971Y-90937715D01*
X134349594Y-90829966D02*
X133783908Y-90264280D01*
X133999408Y-90048781D01*
X134080220Y-90021844D01*
X134134095Y-90021844D01*
X134214907Y-90048781D01*
X134295719Y-90129593D01*
X134322656Y-90210406D01*
X134322656Y-90264280D01*
X134295719Y-90345093D01*
X134080220Y-90560592D01*
X135211591Y-89967969D02*
X134888342Y-90291218D01*
X135049966Y-90129593D02*
X134484281Y-89563908D01*
X134511218Y-89698595D01*
X134511218Y-89806345D01*
X134484281Y-89887157D01*
X135480965Y-89698595D02*
X135588714Y-89590845D01*
X135615652Y-89510033D01*
X135615652Y-89456158D01*
X135588714Y-89321471D01*
X135507902Y-89186784D01*
X135292403Y-88971285D01*
X135211591Y-88944348D01*
X135157716Y-88944348D01*
X135076904Y-88971285D01*
X134969154Y-89079035D01*
X134942217Y-89159847D01*
X134942217Y-89213722D01*
X134969154Y-89294534D01*
X135103841Y-89429221D01*
X135184653Y-89456158D01*
X135238528Y-89456158D01*
X135319340Y-89429221D01*
X135427090Y-89321471D01*
X135454027Y-89240659D01*
X135454027Y-89186784D01*
X135427090Y-89105972D01*
X133541472Y-88020592D02*
X133460660Y-88047529D01*
X133379847Y-88128341D01*
X133325973Y-88236091D01*
X133325973Y-88343841D01*
X133352910Y-88424653D01*
X133433722Y-88559340D01*
X133514534Y-88640152D01*
X133649221Y-88720964D01*
X133730034Y-88747902D01*
X133837783Y-88747902D01*
X133945533Y-88694027D01*
X133999408Y-88640152D01*
X134053282Y-88532402D01*
X134053282Y-88478528D01*
X133864721Y-88289966D01*
X133756971Y-88397715D01*
X134349594Y-88289966D02*
X133783908Y-87724280D01*
X133999408Y-87508781D01*
X134080220Y-87481844D01*
X134134095Y-87481844D01*
X134214907Y-87508781D01*
X134295719Y-87589593D01*
X134322656Y-87670406D01*
X134322656Y-87724280D01*
X134295719Y-87805093D01*
X134080220Y-88020592D01*
X134376531Y-87239407D02*
X134376531Y-87185532D01*
X134403469Y-87104720D01*
X134538156Y-86970033D01*
X134618968Y-86943096D01*
X134672843Y-86943096D01*
X134753655Y-86970033D01*
X134807530Y-87023908D01*
X134861404Y-87131658D01*
X134861404Y-87778155D01*
X135211591Y-87427969D01*
X134996091Y-86512097D02*
X135049966Y-86458223D01*
X135130778Y-86431285D01*
X135184653Y-86431285D01*
X135265465Y-86458223D01*
X135400152Y-86539035D01*
X135534839Y-86673722D01*
X135615652Y-86808409D01*
X135642589Y-86889221D01*
X135642589Y-86943096D01*
X135615652Y-87023908D01*
X135561777Y-87077783D01*
X135480965Y-87104720D01*
X135427090Y-87104720D01*
X135346278Y-87077783D01*
X135211591Y-86996971D01*
X135076904Y-86862284D01*
X134996091Y-86727597D01*
X134969154Y-86646784D01*
X134969154Y-86592910D01*
X134996091Y-86512097D01*
X133541472Y-85490592D02*
X133460660Y-85517529D01*
X133379847Y-85598341D01*
X133325973Y-85706091D01*
X133325973Y-85813841D01*
X133352910Y-85894653D01*
X133433722Y-86029340D01*
X133514534Y-86110152D01*
X133649221Y-86190964D01*
X133730034Y-86217902D01*
X133837783Y-86217902D01*
X133945533Y-86164027D01*
X133999408Y-86110152D01*
X134053282Y-86002402D01*
X134053282Y-85948528D01*
X133864721Y-85759966D01*
X133756971Y-85867715D01*
X134349594Y-85759966D02*
X133783908Y-85194280D01*
X133999408Y-84978781D01*
X134080220Y-84951844D01*
X134134095Y-84951844D01*
X134214907Y-84978781D01*
X134295719Y-85059593D01*
X134322656Y-85140406D01*
X134322656Y-85194280D01*
X134295719Y-85275093D01*
X134080220Y-85490592D01*
X134376531Y-84709407D02*
X134376531Y-84655532D01*
X134403469Y-84574720D01*
X134538156Y-84440033D01*
X134618968Y-84413096D01*
X134672843Y-84413096D01*
X134753655Y-84440033D01*
X134807530Y-84493908D01*
X134861404Y-84601658D01*
X134861404Y-85248155D01*
X135211591Y-84897969D01*
X135750339Y-84359221D02*
X135427090Y-84682470D01*
X135588714Y-84520845D02*
X135023029Y-83955160D01*
X135049966Y-84089847D01*
X135049966Y-84197597D01*
X135023029Y-84278409D01*
X133541472Y-80400592D02*
X133460660Y-80427529D01*
X133379847Y-80508341D01*
X133325973Y-80616091D01*
X133325973Y-80723841D01*
X133352910Y-80804653D01*
X133433722Y-80939340D01*
X133514534Y-81020152D01*
X133649221Y-81100964D01*
X133730034Y-81127902D01*
X133837783Y-81127902D01*
X133945533Y-81074027D01*
X133999408Y-81020152D01*
X134053282Y-80912402D01*
X134053282Y-80858528D01*
X133864721Y-80669966D01*
X133756971Y-80777715D01*
X134349594Y-80669966D02*
X133783908Y-80104280D01*
X133999408Y-79888781D01*
X134080220Y-79861844D01*
X134134095Y-79861844D01*
X134214907Y-79888781D01*
X134295719Y-79969593D01*
X134322656Y-80050406D01*
X134322656Y-80104280D01*
X134295719Y-80185093D01*
X134080220Y-80400592D01*
X134376531Y-79619407D02*
X134376531Y-79565532D01*
X134403469Y-79484720D01*
X134538156Y-79350033D01*
X134618968Y-79323096D01*
X134672843Y-79323096D01*
X134753655Y-79350033D01*
X134807530Y-79403908D01*
X134861404Y-79511658D01*
X134861404Y-80158155D01*
X135211591Y-79807969D01*
X134915279Y-79080659D02*
X134915279Y-79026784D01*
X134942217Y-78945972D01*
X135076904Y-78811285D01*
X135157716Y-78784348D01*
X135211591Y-78784348D01*
X135292403Y-78811285D01*
X135346278Y-78865160D01*
X135400152Y-78972910D01*
X135400152Y-79619407D01*
X135750339Y-79269221D01*
X134282125Y-78143435D02*
X133824189Y-78062622D01*
X133958876Y-78466683D02*
X133393191Y-77900998D01*
X133608690Y-77685499D01*
X133689502Y-77658561D01*
X133743377Y-77658561D01*
X133824189Y-77685499D01*
X133905001Y-77766311D01*
X133931939Y-77847123D01*
X133931939Y-77900998D01*
X133905001Y-77981810D01*
X133689502Y-78197309D01*
X133958876Y-77335312D02*
X134416812Y-77793248D01*
X134497624Y-77820186D01*
X134551499Y-77820186D01*
X134632311Y-77793248D01*
X134740061Y-77685499D01*
X134766998Y-77604687D01*
X134766998Y-77550812D01*
X134740061Y-77469999D01*
X134282125Y-77012064D01*
X135117185Y-77308375D02*
X134551499Y-76742690D01*
X135440433Y-76985126D01*
X134874748Y-76419441D01*
X133541472Y-75320592D02*
X133460660Y-75347529D01*
X133379847Y-75428341D01*
X133325973Y-75536091D01*
X133325973Y-75643841D01*
X133352910Y-75724653D01*
X133433722Y-75859340D01*
X133514534Y-75940152D01*
X133649221Y-76020964D01*
X133730034Y-76047902D01*
X133837783Y-76047902D01*
X133945533Y-75994027D01*
X133999408Y-75940152D01*
X134053282Y-75832402D01*
X134053282Y-75778528D01*
X133864721Y-75589966D01*
X133756971Y-75697715D01*
X134349594Y-75589966D02*
X133783908Y-75024280D01*
X133999408Y-74808781D01*
X134080220Y-74781844D01*
X134134095Y-74781844D01*
X134214907Y-74808781D01*
X134295719Y-74889593D01*
X134322656Y-74970406D01*
X134322656Y-75024280D01*
X134295719Y-75105093D01*
X134080220Y-75320592D01*
X134376531Y-74539407D02*
X134376531Y-74485532D01*
X134403469Y-74404720D01*
X134538156Y-74270033D01*
X134618968Y-74243096D01*
X134672843Y-74243096D01*
X134753655Y-74270033D01*
X134807530Y-74323908D01*
X134861404Y-74431658D01*
X134861404Y-75078155D01*
X135211591Y-74727969D01*
X135130778Y-73677410D02*
X135023029Y-73785160D01*
X134996091Y-73865972D01*
X134996091Y-73919847D01*
X135023029Y-74054534D01*
X135103841Y-74189221D01*
X135319340Y-74404720D01*
X135400152Y-74431658D01*
X135454027Y-74431658D01*
X135534839Y-74404720D01*
X135642589Y-74296971D01*
X135669526Y-74216158D01*
X135669526Y-74162284D01*
X135642589Y-74081471D01*
X135507902Y-73946784D01*
X135427090Y-73919847D01*
X135373215Y-73919847D01*
X135292403Y-73946784D01*
X135184653Y-74054534D01*
X135157716Y-74135346D01*
X135157716Y-74189221D01*
X135184653Y-74270033D01*
X133541472Y-72790592D02*
X133460660Y-72817529D01*
X133379847Y-72898341D01*
X133325973Y-73006091D01*
X133325973Y-73113841D01*
X133352910Y-73194653D01*
X133433722Y-73329340D01*
X133514534Y-73410152D01*
X133649221Y-73490964D01*
X133730034Y-73517902D01*
X133837783Y-73517902D01*
X133945533Y-73464027D01*
X133999408Y-73410152D01*
X134053282Y-73302402D01*
X134053282Y-73248528D01*
X133864721Y-73059966D01*
X133756971Y-73167715D01*
X134349594Y-73059966D02*
X133783908Y-72494280D01*
X133999408Y-72278781D01*
X134080220Y-72251844D01*
X134134095Y-72251844D01*
X134214907Y-72278781D01*
X134295719Y-72359593D01*
X134322656Y-72440406D01*
X134322656Y-72494280D01*
X134295719Y-72575093D01*
X134080220Y-72790592D01*
X134376531Y-72009407D02*
X134376531Y-71955532D01*
X134403469Y-71874720D01*
X134538156Y-71740033D01*
X134618968Y-71713096D01*
X134672843Y-71713096D01*
X134753655Y-71740033D01*
X134807530Y-71793908D01*
X134861404Y-71901658D01*
X134861404Y-72548155D01*
X135211591Y-72197969D01*
X134834467Y-71443722D02*
X135211591Y-71066598D01*
X135534839Y-71874720D01*
X133541472Y-67446592D02*
X133460660Y-67473529D01*
X133379847Y-67554341D01*
X133325973Y-67662091D01*
X133325973Y-67769841D01*
X133352910Y-67850653D01*
X133433722Y-67985340D01*
X133514534Y-68066152D01*
X133649221Y-68146964D01*
X133730034Y-68173902D01*
X133837783Y-68173902D01*
X133945533Y-68120027D01*
X133999408Y-68066152D01*
X134053282Y-67958402D01*
X134053282Y-67904528D01*
X133864721Y-67715966D01*
X133756971Y-67823715D01*
X134349594Y-67715966D02*
X133783908Y-67150280D01*
X133999408Y-66934781D01*
X134080220Y-66907844D01*
X134134095Y-66907844D01*
X134214907Y-66934781D01*
X134295719Y-67015593D01*
X134322656Y-67096406D01*
X134322656Y-67150280D01*
X134295719Y-67231093D01*
X134080220Y-67446592D01*
X134376531Y-66665407D02*
X134376531Y-66611532D01*
X134403469Y-66530720D01*
X134538156Y-66396033D01*
X134618968Y-66369096D01*
X134672843Y-66369096D01*
X134753655Y-66396033D01*
X134807530Y-66449908D01*
X134861404Y-66557658D01*
X134861404Y-67204155D01*
X135211591Y-66853969D01*
X135211591Y-66207471D02*
X135130778Y-66234409D01*
X135076904Y-66234409D01*
X134996091Y-66207471D01*
X134969154Y-66180534D01*
X134942217Y-66099722D01*
X134942217Y-66045847D01*
X134969154Y-65965035D01*
X135076904Y-65857285D01*
X135157716Y-65830348D01*
X135211591Y-65830348D01*
X135292403Y-65857285D01*
X135319340Y-65884223D01*
X135346278Y-65965035D01*
X135346278Y-66018910D01*
X135319340Y-66099722D01*
X135211591Y-66207471D01*
X135184653Y-66288284D01*
X135184653Y-66342158D01*
X135211591Y-66422971D01*
X135319340Y-66530720D01*
X135400152Y-66557658D01*
X135454027Y-66557658D01*
X135534839Y-66530720D01*
X135642589Y-66422971D01*
X135669526Y-66342158D01*
X135669526Y-66288284D01*
X135642589Y-66207471D01*
X135534839Y-66099722D01*
X135454027Y-66072784D01*
X135400152Y-66072784D01*
X135319340Y-66099722D01*
X133598538Y-65733773D02*
X133867912Y-65464399D01*
X133706287Y-65949272D02*
X133329164Y-65195025D01*
X134083411Y-65572149D01*
X134271973Y-65383587D02*
X133706287Y-64817902D01*
X133840974Y-64683215D01*
X133948724Y-64629340D01*
X134056473Y-64629340D01*
X134137286Y-64656277D01*
X134271973Y-64737089D01*
X134352785Y-64817902D01*
X134433597Y-64952589D01*
X134460534Y-65033401D01*
X134460534Y-65141150D01*
X134406660Y-65248900D01*
X134271973Y-65383587D01*
X135107032Y-64440778D02*
X135107032Y-64494653D01*
X135053157Y-64602402D01*
X134999282Y-64656277D01*
X134891533Y-64710152D01*
X134783783Y-64710152D01*
X134702971Y-64683215D01*
X134568284Y-64602402D01*
X134487472Y-64521590D01*
X134406660Y-64386903D01*
X134379722Y-64306091D01*
X134379722Y-64198341D01*
X134433597Y-64090592D01*
X134487472Y-64036717D01*
X134595221Y-63982842D01*
X134649096Y-63982842D01*
X135322531Y-64440778D02*
X135753530Y-64009780D01*
X135187844Y-63336345D02*
X135942091Y-63713468D01*
X135564968Y-62959221D01*
X136642464Y-63013096D02*
X136184528Y-62932284D01*
X136319215Y-63336345D02*
X135753530Y-62770659D01*
X135969029Y-62555160D01*
X136049841Y-62528223D01*
X136103716Y-62528223D01*
X136184528Y-62555160D01*
X136265340Y-62635972D01*
X136292278Y-62716784D01*
X136292278Y-62770659D01*
X136265340Y-62851471D01*
X136049841Y-63066971D01*
X136588589Y-62474348D02*
X136777151Y-62285786D01*
X137154274Y-62501285D02*
X136884900Y-62770659D01*
X136319215Y-62204974D01*
X136588589Y-61935600D01*
X137288961Y-61773975D02*
X137100400Y-61962537D01*
X137396711Y-62258849D02*
X136831026Y-61693163D01*
X137100400Y-61423789D01*
X133333597Y-62690592D02*
X133683783Y-62340406D01*
X133710721Y-62744467D01*
X133791533Y-62663654D01*
X133872345Y-62636717D01*
X133926220Y-62636717D01*
X134007032Y-62663654D01*
X134141719Y-62798341D01*
X134168656Y-62879154D01*
X134168656Y-62933028D01*
X134141719Y-63013841D01*
X133980095Y-63175465D01*
X133899282Y-63202402D01*
X133845408Y-63202402D01*
X133845408Y-62178781D02*
X134599655Y-62555905D01*
X134222531Y-61801658D01*
X134357218Y-61666971D02*
X134707404Y-61316784D01*
X134734342Y-61720845D01*
X134815154Y-61640033D01*
X134895966Y-61613096D01*
X134949841Y-61613096D01*
X135030653Y-61640033D01*
X135165340Y-61774720D01*
X135192278Y-61855532D01*
X135192278Y-61909407D01*
X135165340Y-61990219D01*
X135003716Y-62151844D01*
X134922904Y-62178781D01*
X134869029Y-62178781D01*
X133365881Y-60158308D02*
X133716067Y-59808122D01*
X133743005Y-60212183D01*
X133823817Y-60131370D01*
X133904629Y-60104433D01*
X133958504Y-60104433D01*
X134039316Y-60131370D01*
X134174003Y-60266057D01*
X134200940Y-60346870D01*
X134200940Y-60400744D01*
X134174003Y-60481557D01*
X134012379Y-60643181D01*
X133931566Y-60670118D01*
X133877692Y-60670118D01*
X133877692Y-59646497D02*
X134631939Y-60023621D01*
X134254815Y-59269374D01*
X134389502Y-59134687D02*
X134739688Y-58784500D01*
X134766626Y-59188561D01*
X134847438Y-59107749D01*
X134928250Y-59080812D01*
X134982125Y-59080812D01*
X135062937Y-59107749D01*
X135197624Y-59242436D01*
X135224562Y-59323248D01*
X135224562Y-59377123D01*
X135197624Y-59457935D01*
X135036000Y-59619560D01*
X134955188Y-59646497D01*
X134901313Y-59646497D01*
X135466998Y-59296311D02*
X135897997Y-58865312D01*
X135682498Y-58380439D02*
X135871059Y-58191877D01*
X136248183Y-58407377D02*
X135978809Y-58676751D01*
X135413124Y-58111065D01*
X135682498Y-57841691D01*
X136490620Y-58164940D02*
X135924934Y-57599255D01*
X136813868Y-57841691D01*
X136248183Y-57276006D01*
X133364223Y-55269966D02*
X134118470Y-55647089D01*
X133741347Y-54892842D01*
X134441719Y-55269966D02*
X134549469Y-55216091D01*
X134684156Y-55081404D01*
X134711093Y-55000592D01*
X134711093Y-54946717D01*
X134684156Y-54865905D01*
X134630281Y-54812030D01*
X134549469Y-54785093D01*
X134495594Y-54785093D01*
X134414782Y-54812030D01*
X134280095Y-54892842D01*
X134199282Y-54919780D01*
X134145408Y-54919780D01*
X134064595Y-54892842D01*
X134010721Y-54838967D01*
X133983783Y-54758155D01*
X133983783Y-54704280D01*
X134010721Y-54623468D01*
X134145408Y-54488781D01*
X134253157Y-54434906D01*
X134872717Y-54354094D02*
X135142091Y-54623468D01*
X134387844Y-54246345D02*
X134872717Y-54354094D01*
X134764968Y-53869221D01*
X135465340Y-54246345D02*
X135573090Y-54192470D01*
X135707777Y-54057783D01*
X135734714Y-53976971D01*
X135734714Y-53923096D01*
X135707777Y-53842284D01*
X135653902Y-53788409D01*
X135573090Y-53761471D01*
X135519215Y-53761471D01*
X135438403Y-53788409D01*
X135303716Y-53869221D01*
X135222904Y-53896158D01*
X135169029Y-53896158D01*
X135088217Y-53869221D01*
X135034342Y-53815346D01*
X135007404Y-53734534D01*
X135007404Y-53680659D01*
X135034342Y-53599847D01*
X135169029Y-53465160D01*
X135276778Y-53411285D01*
X133396879Y-52727309D02*
X134151127Y-53104433D01*
X133774003Y-52350186D01*
X134420501Y-52242436D02*
X134528250Y-52188561D01*
X134582125Y-52188561D01*
X134662937Y-52215499D01*
X134743750Y-52296311D01*
X134770687Y-52377123D01*
X134770687Y-52430998D01*
X134743750Y-52511810D01*
X134528250Y-52727309D01*
X133962565Y-52161624D01*
X134151127Y-51973062D01*
X134231939Y-51946125D01*
X134285814Y-51946125D01*
X134366626Y-51973062D01*
X134420501Y-52026937D01*
X134447438Y-52107749D01*
X134447438Y-52161624D01*
X134420501Y-52242436D01*
X134231939Y-52430998D01*
X134528250Y-51595938D02*
X134986186Y-52053874D01*
X135066998Y-52080812D01*
X135120873Y-52080812D01*
X135201685Y-52053874D01*
X135309435Y-51946125D01*
X135336372Y-51865312D01*
X135336372Y-51811438D01*
X135309435Y-51730625D01*
X134851499Y-51272690D01*
X135632684Y-51569001D02*
X135740433Y-51515126D01*
X135875120Y-51380439D01*
X135902058Y-51299627D01*
X135902058Y-51245752D01*
X135875120Y-51164940D01*
X135821246Y-51111065D01*
X135740433Y-51084128D01*
X135686559Y-51084128D01*
X135605746Y-51111065D01*
X135471059Y-51191877D01*
X135390247Y-51218815D01*
X135336372Y-51218815D01*
X135255560Y-51191877D01*
X135201685Y-51138003D01*
X135174748Y-51057190D01*
X135174748Y-51003316D01*
X135201685Y-50922503D01*
X135336372Y-50787816D01*
X135444122Y-50733942D01*
X107929908Y-57298155D02*
X107849096Y-57325093D01*
X107768284Y-57405905D01*
X107714409Y-57513654D01*
X107714409Y-57621404D01*
X107741347Y-57702216D01*
X107822159Y-57836903D01*
X107902971Y-57917715D01*
X108037658Y-57998528D01*
X108118470Y-58025465D01*
X108226220Y-58025465D01*
X108333969Y-57971590D01*
X108387844Y-57917715D01*
X108441719Y-57809966D01*
X108441719Y-57756091D01*
X108253157Y-57567529D01*
X108145408Y-57675279D01*
X108738030Y-57567529D02*
X108172345Y-57001844D01*
X109061279Y-57244280D01*
X108495594Y-56678595D01*
X109330653Y-56974906D02*
X108764968Y-56409221D01*
X108899655Y-56274534D01*
X109007404Y-56220659D01*
X109115154Y-56220659D01*
X109195966Y-56247597D01*
X109330653Y-56328409D01*
X109411465Y-56409221D01*
X109492278Y-56543908D01*
X109519215Y-56624720D01*
X109519215Y-56732470D01*
X109465340Y-56840219D01*
X109330653Y-56974906D01*
X107929908Y-69998155D02*
X107849096Y-70025093D01*
X107768284Y-70105905D01*
X107714409Y-70213654D01*
X107714409Y-70321404D01*
X107741347Y-70402216D01*
X107822159Y-70536903D01*
X107902971Y-70617715D01*
X108037658Y-70698528D01*
X108118470Y-70725465D01*
X108226220Y-70725465D01*
X108333969Y-70671590D01*
X108387844Y-70617715D01*
X108441719Y-70509966D01*
X108441719Y-70456091D01*
X108253157Y-70267529D01*
X108145408Y-70375279D01*
X108738030Y-70267529D02*
X108172345Y-69701844D01*
X109061279Y-69944280D01*
X108495594Y-69378595D01*
X109330653Y-69674906D02*
X108764968Y-69109221D01*
X108899655Y-68974534D01*
X109007404Y-68920659D01*
X109115154Y-68920659D01*
X109195966Y-68947597D01*
X109330653Y-69028409D01*
X109411465Y-69109221D01*
X109492278Y-69243908D01*
X109519215Y-69324720D01*
X109519215Y-69432470D01*
X109465340Y-69540219D01*
X109330653Y-69674906D01*
X107929908Y-82698155D02*
X107849096Y-82725093D01*
X107768284Y-82805905D01*
X107714409Y-82913654D01*
X107714409Y-83021404D01*
X107741347Y-83102216D01*
X107822159Y-83236903D01*
X107902971Y-83317715D01*
X108037658Y-83398528D01*
X108118470Y-83425465D01*
X108226220Y-83425465D01*
X108333969Y-83371590D01*
X108387844Y-83317715D01*
X108441719Y-83209966D01*
X108441719Y-83156091D01*
X108253157Y-82967529D01*
X108145408Y-83075279D01*
X108738030Y-82967529D02*
X108172345Y-82401844D01*
X109061279Y-82644280D01*
X108495594Y-82078595D01*
X109330653Y-82374906D02*
X108764968Y-81809221D01*
X108899655Y-81674534D01*
X109007404Y-81620659D01*
X109115154Y-81620659D01*
X109195966Y-81647597D01*
X109330653Y-81728409D01*
X109411465Y-81809221D01*
X109492278Y-81943908D01*
X109519215Y-82024720D01*
X109519215Y-82132470D01*
X109465340Y-82240219D01*
X109330653Y-82374906D01*
X107929908Y-95398155D02*
X107849096Y-95425093D01*
X107768284Y-95505905D01*
X107714409Y-95613654D01*
X107714409Y-95721404D01*
X107741347Y-95802216D01*
X107822159Y-95936903D01*
X107902971Y-96017715D01*
X108037658Y-96098528D01*
X108118470Y-96125465D01*
X108226220Y-96125465D01*
X108333969Y-96071590D01*
X108387844Y-96017715D01*
X108441719Y-95909966D01*
X108441719Y-95856091D01*
X108253157Y-95667529D01*
X108145408Y-95775279D01*
X108738030Y-95667529D02*
X108172345Y-95101844D01*
X109061279Y-95344280D01*
X108495594Y-94778595D01*
X109330653Y-95074906D02*
X108764968Y-94509221D01*
X108899655Y-94374534D01*
X109007404Y-94320659D01*
X109115154Y-94320659D01*
X109195966Y-94347597D01*
X109330653Y-94428409D01*
X109411465Y-94509221D01*
X109492278Y-94643908D01*
X109519215Y-94724720D01*
X109519215Y-94832470D01*
X109465340Y-94940219D01*
X109330653Y-95074906D01*
X133529908Y-95398155D02*
X133449096Y-95425093D01*
X133368284Y-95505905D01*
X133314409Y-95613654D01*
X133314409Y-95721404D01*
X133341347Y-95802216D01*
X133422159Y-95936903D01*
X133502971Y-96017715D01*
X133637658Y-96098528D01*
X133718470Y-96125465D01*
X133826220Y-96125465D01*
X133933969Y-96071590D01*
X133987844Y-96017715D01*
X134041719Y-95909966D01*
X134041719Y-95856091D01*
X133853157Y-95667529D01*
X133745408Y-95775279D01*
X134338030Y-95667529D02*
X133772345Y-95101844D01*
X134661279Y-95344280D01*
X134095594Y-94778595D01*
X134930653Y-95074906D02*
X134364968Y-94509221D01*
X134499655Y-94374534D01*
X134607404Y-94320659D01*
X134715154Y-94320659D01*
X134795966Y-94347597D01*
X134930653Y-94428409D01*
X135011465Y-94509221D01*
X135092278Y-94643908D01*
X135119215Y-94724720D01*
X135119215Y-94832470D01*
X135065340Y-94940219D01*
X134930653Y-95074906D01*
X133529908Y-82698155D02*
X133449096Y-82725093D01*
X133368284Y-82805905D01*
X133314409Y-82913654D01*
X133314409Y-83021404D01*
X133341347Y-83102216D01*
X133422159Y-83236903D01*
X133502971Y-83317715D01*
X133637658Y-83398528D01*
X133718470Y-83425465D01*
X133826220Y-83425465D01*
X133933969Y-83371590D01*
X133987844Y-83317715D01*
X134041719Y-83209966D01*
X134041719Y-83156091D01*
X133853157Y-82967529D01*
X133745408Y-83075279D01*
X134338030Y-82967529D02*
X133772345Y-82401844D01*
X134661279Y-82644280D01*
X134095594Y-82078595D01*
X134930653Y-82374906D02*
X134364968Y-81809221D01*
X134499655Y-81674534D01*
X134607404Y-81620659D01*
X134715154Y-81620659D01*
X134795966Y-81647597D01*
X134930653Y-81728409D01*
X135011465Y-81809221D01*
X135092278Y-81943908D01*
X135119215Y-82024720D01*
X135119215Y-82132470D01*
X135065340Y-82240219D01*
X134930653Y-82374906D01*
X133529908Y-57298155D02*
X133449096Y-57325093D01*
X133368284Y-57405905D01*
X133314409Y-57513654D01*
X133314409Y-57621404D01*
X133341347Y-57702216D01*
X133422159Y-57836903D01*
X133502971Y-57917715D01*
X133637658Y-57998528D01*
X133718470Y-58025465D01*
X133826220Y-58025465D01*
X133933969Y-57971590D01*
X133987844Y-57917715D01*
X134041719Y-57809966D01*
X134041719Y-57756091D01*
X133853157Y-57567529D01*
X133745408Y-57675279D01*
X134338030Y-57567529D02*
X133772345Y-57001844D01*
X134661279Y-57244280D01*
X134095594Y-56678595D01*
X134930653Y-56974906D02*
X134364968Y-56409221D01*
X134499655Y-56274534D01*
X134607404Y-56220659D01*
X134715154Y-56220659D01*
X134795966Y-56247597D01*
X134930653Y-56328409D01*
X135011465Y-56409221D01*
X135092278Y-56543908D01*
X135119215Y-56624720D01*
X135119215Y-56732470D01*
X135065340Y-56840219D01*
X134930653Y-56974906D01*
X133595347Y-70940964D02*
X133864721Y-70671590D01*
X133703096Y-71156463D02*
X133325973Y-70402216D01*
X134080220Y-70779340D01*
X134026345Y-69755719D02*
X133945533Y-69782656D01*
X133864721Y-69863468D01*
X133810846Y-69971218D01*
X133810846Y-70078967D01*
X133837783Y-70159780D01*
X133918595Y-70294467D01*
X133999408Y-70375279D01*
X134134095Y-70456091D01*
X134214907Y-70483028D01*
X134322656Y-70483028D01*
X134430406Y-70429154D01*
X134484281Y-70375279D01*
X134538156Y-70267529D01*
X134538156Y-70213654D01*
X134349594Y-70025093D01*
X134241844Y-70132842D01*
X134834467Y-70025093D02*
X134268782Y-69459407D01*
X135157716Y-69701844D01*
X134592030Y-69136158D01*
X135427090Y-69432470D02*
X134861404Y-68866784D01*
X134996091Y-68732097D01*
X135103841Y-68678223D01*
X135211591Y-68678223D01*
X135292403Y-68705160D01*
X135427090Y-68785972D01*
X135507902Y-68866784D01*
X135588714Y-69001471D01*
X135615652Y-69082284D01*
X135615652Y-69190033D01*
X135561777Y-69297783D01*
X135427090Y-69432470D01*
X113934226Y-102723809D02*
X114048511Y-102761904D01*
X114238988Y-102761904D01*
X114315178Y-102723809D01*
X114353273Y-102685714D01*
X114391369Y-102609523D01*
X114391369Y-102533333D01*
X114353273Y-102457142D01*
X114315178Y-102419047D01*
X114238988Y-102380952D01*
X114086607Y-102342857D01*
X114010416Y-102304761D01*
X113972321Y-102266666D01*
X113934226Y-102190476D01*
X113934226Y-102114285D01*
X113972321Y-102038095D01*
X114010416Y-102000000D01*
X114086607Y-101961904D01*
X114277083Y-101961904D01*
X114391369Y-102000000D01*
X114658035Y-101961904D02*
X114848511Y-102761904D01*
X115000892Y-102190476D01*
X115153273Y-102761904D01*
X115343750Y-101961904D01*
X116105654Y-102685714D02*
X116067559Y-102723809D01*
X115953273Y-102761904D01*
X115877083Y-102761904D01*
X115762797Y-102723809D01*
X115686607Y-102647619D01*
X115648511Y-102571428D01*
X115610416Y-102419047D01*
X115610416Y-102304761D01*
X115648511Y-102152380D01*
X115686607Y-102076190D01*
X115762797Y-102000000D01*
X115877083Y-101961904D01*
X115953273Y-101961904D01*
X116067559Y-102000000D01*
X116105654Y-102038095D01*
X116829464Y-102761904D02*
X116448511Y-102761904D01*
X116448511Y-101961904D01*
X117096130Y-102761904D02*
X117096130Y-101961904D01*
X117553273Y-102761904D02*
X117210416Y-102304761D01*
X117553273Y-101961904D02*
X117096130Y-102419047D01*
X125348511Y-102723809D02*
X125462797Y-102761904D01*
X125653273Y-102761904D01*
X125729464Y-102723809D01*
X125767559Y-102685714D01*
X125805654Y-102609523D01*
X125805654Y-102533333D01*
X125767559Y-102457142D01*
X125729464Y-102419047D01*
X125653273Y-102380952D01*
X125500892Y-102342857D01*
X125424702Y-102304761D01*
X125386607Y-102266666D01*
X125348511Y-102190476D01*
X125348511Y-102114285D01*
X125386607Y-102038095D01*
X125424702Y-102000000D01*
X125500892Y-101961904D01*
X125691369Y-101961904D01*
X125805654Y-102000000D01*
X126072321Y-101961904D02*
X126262797Y-102761904D01*
X126415178Y-102190476D01*
X126567559Y-102761904D01*
X126758035Y-101961904D01*
X127062797Y-102761904D02*
X127062797Y-101961904D01*
X127253273Y-101961904D01*
X127367559Y-102000000D01*
X127443750Y-102076190D01*
X127481845Y-102152380D01*
X127519940Y-102304761D01*
X127519940Y-102419047D01*
X127481845Y-102571428D01*
X127443750Y-102647619D01*
X127367559Y-102723809D01*
X127253273Y-102761904D01*
X127062797Y-102761904D01*
X127862797Y-102761904D02*
X127862797Y-101961904D01*
X128396130Y-101961904D02*
X128548511Y-101961904D01*
X128624702Y-102000000D01*
X128700892Y-102076190D01*
X128738988Y-102228571D01*
X128738988Y-102495238D01*
X128700892Y-102647619D01*
X128624702Y-102723809D01*
X128548511Y-102761904D01*
X128396130Y-102761904D01*
X128319940Y-102723809D01*
X128243750Y-102647619D01*
X128205654Y-102495238D01*
X128205654Y-102228571D01*
X128243750Y-102076190D01*
X128319940Y-102000000D01*
X128396130Y-101961904D01*
%TO.C,D5*%
X185742492Y-64199456D02*
X185742492Y-63399456D01*
X185932969Y-63399456D01*
X186047254Y-63437552D01*
X186123445Y-63513742D01*
X186161540Y-63589932D01*
X186199635Y-63742313D01*
X186199635Y-63856599D01*
X186161540Y-64008980D01*
X186123445Y-64085171D01*
X186047254Y-64161361D01*
X185932969Y-64199456D01*
X185742492Y-64199456D01*
X186923445Y-63399456D02*
X186542492Y-63399456D01*
X186504397Y-63780409D01*
X186542492Y-63742313D01*
X186618683Y-63704218D01*
X186809159Y-63704218D01*
X186885349Y-63742313D01*
X186923445Y-63780409D01*
X186961540Y-63856599D01*
X186961540Y-64047075D01*
X186923445Y-64123266D01*
X186885349Y-64161361D01*
X186809159Y-64199456D01*
X186618683Y-64199456D01*
X186542492Y-64161361D01*
X186504397Y-64123266D01*
%TO.C,D6*%
X166097163Y-64794769D02*
X166097163Y-63994769D01*
X166287640Y-63994769D01*
X166401925Y-64032865D01*
X166478116Y-64109055D01*
X166516211Y-64185245D01*
X166554306Y-64337626D01*
X166554306Y-64451912D01*
X166516211Y-64604293D01*
X166478116Y-64680484D01*
X166401925Y-64756674D01*
X166287640Y-64794769D01*
X166097163Y-64794769D01*
X167240020Y-63994769D02*
X167087640Y-63994769D01*
X167011449Y-64032865D01*
X166973354Y-64070960D01*
X166897163Y-64185245D01*
X166859068Y-64337626D01*
X166859068Y-64642388D01*
X166897163Y-64718579D01*
X166935259Y-64756674D01*
X167011449Y-64794769D01*
X167163830Y-64794769D01*
X167240020Y-64756674D01*
X167278116Y-64718579D01*
X167316211Y-64642388D01*
X167316211Y-64451912D01*
X167278116Y-64375722D01*
X167240020Y-64337626D01*
X167163830Y-64299531D01*
X167011449Y-64299531D01*
X166935259Y-64337626D01*
X166897163Y-64375722D01*
X166859068Y-64451912D01*
%TO.C,D7*%
X185147179Y-107061992D02*
X185147179Y-106261992D01*
X185337656Y-106261992D01*
X185451941Y-106300088D01*
X185528132Y-106376278D01*
X185566227Y-106452468D01*
X185604322Y-106604849D01*
X185604322Y-106719135D01*
X185566227Y-106871516D01*
X185528132Y-106947707D01*
X185451941Y-107023897D01*
X185337656Y-107061992D01*
X185147179Y-107061992D01*
X185870989Y-106261992D02*
X186404322Y-106261992D01*
X186061465Y-107061992D01*
%TO.C,D8*%
X147642460Y-107061992D02*
X147642460Y-106261992D01*
X147832937Y-106261992D01*
X147947222Y-106300088D01*
X148023413Y-106376278D01*
X148061508Y-106452468D01*
X148099603Y-106604849D01*
X148099603Y-106719135D01*
X148061508Y-106871516D01*
X148023413Y-106947707D01*
X147947222Y-107023897D01*
X147832937Y-107061992D01*
X147642460Y-107061992D01*
X148556746Y-106604849D02*
X148480556Y-106566754D01*
X148442460Y-106528659D01*
X148404365Y-106452468D01*
X148404365Y-106414373D01*
X148442460Y-106338183D01*
X148480556Y-106300088D01*
X148556746Y-106261992D01*
X148709127Y-106261992D01*
X148785317Y-106300088D01*
X148823413Y-106338183D01*
X148861508Y-106414373D01*
X148861508Y-106452468D01*
X148823413Y-106528659D01*
X148785317Y-106566754D01*
X148709127Y-106604849D01*
X148556746Y-106604849D01*
X148480556Y-106642945D01*
X148442460Y-106681040D01*
X148404365Y-106757230D01*
X148404365Y-106909611D01*
X148442460Y-106985802D01*
X148480556Y-107023897D01*
X148556746Y-107061992D01*
X148709127Y-107061992D01*
X148785317Y-107023897D01*
X148823413Y-106985802D01*
X148861508Y-106909611D01*
X148861508Y-106757230D01*
X148823413Y-106681040D01*
X148785317Y-106642945D01*
X148709127Y-106604849D01*
%TO.C,D9*%
X166692476Y-107061992D02*
X166692476Y-106261992D01*
X166882953Y-106261992D01*
X166997238Y-106300088D01*
X167073429Y-106376278D01*
X167111524Y-106452468D01*
X167149619Y-106604849D01*
X167149619Y-106719135D01*
X167111524Y-106871516D01*
X167073429Y-106947707D01*
X166997238Y-107023897D01*
X166882953Y-107061992D01*
X166692476Y-107061992D01*
X167530572Y-107061992D02*
X167682953Y-107061992D01*
X167759143Y-107023897D01*
X167797238Y-106985802D01*
X167873429Y-106871516D01*
X167911524Y-106719135D01*
X167911524Y-106414373D01*
X167873429Y-106338183D01*
X167835333Y-106300088D01*
X167759143Y-106261992D01*
X167606762Y-106261992D01*
X167530572Y-106300088D01*
X167492476Y-106338183D01*
X167454381Y-106414373D01*
X167454381Y-106604849D01*
X167492476Y-106681040D01*
X167530572Y-106719135D01*
X167606762Y-106757230D01*
X167759143Y-106757230D01*
X167835333Y-106719135D01*
X167873429Y-106681040D01*
X167911524Y-106604849D01*
%TO.C,D10*%
X145475569Y-64794769D02*
X145475569Y-63994769D01*
X145666045Y-63994769D01*
X145780331Y-64032865D01*
X145856521Y-64109055D01*
X145894617Y-64185245D01*
X145932712Y-64337626D01*
X145932712Y-64451912D01*
X145894617Y-64604293D01*
X145856521Y-64680484D01*
X145780331Y-64756674D01*
X145666045Y-64794769D01*
X145475569Y-64794769D01*
X146694617Y-64794769D02*
X146237474Y-64794769D01*
X146466045Y-64794769D02*
X146466045Y-63994769D01*
X146389855Y-64109055D01*
X146313664Y-64185245D01*
X146237474Y-64223341D01*
X147189855Y-63994769D02*
X147266045Y-63994769D01*
X147342236Y-64032865D01*
X147380331Y-64070960D01*
X147418426Y-64147150D01*
X147456521Y-64299531D01*
X147456521Y-64490007D01*
X147418426Y-64642388D01*
X147380331Y-64718579D01*
X147342236Y-64756674D01*
X147266045Y-64794769D01*
X147189855Y-64794769D01*
X147113664Y-64756674D01*
X147075569Y-64718579D01*
X147037474Y-64642388D01*
X146999378Y-64490007D01*
X146999378Y-64299531D01*
X147037474Y-64147150D01*
X147075569Y-64070960D01*
X147113664Y-64032865D01*
X147189855Y-63994769D01*
%TO.C,R1*%
X176383333Y-54759924D02*
X176050000Y-54283734D01*
X175811904Y-54759924D02*
X175811904Y-53759924D01*
X176192857Y-53759924D01*
X176288095Y-53807544D01*
X176335714Y-53855163D01*
X176383333Y-53950401D01*
X176383333Y-54093258D01*
X176335714Y-54188496D01*
X176288095Y-54236115D01*
X176192857Y-54283734D01*
X175811904Y-54283734D01*
X177335714Y-54759924D02*
X176764285Y-54759924D01*
X177050000Y-54759924D02*
X177050000Y-53759924D01*
X176954761Y-53902782D01*
X176859523Y-53998020D01*
X176764285Y-54045639D01*
%TO.C,R2*%
X176133333Y-47372380D02*
X175800000Y-46896190D01*
X175561904Y-47372380D02*
X175561904Y-46372380D01*
X175942857Y-46372380D01*
X176038095Y-46420000D01*
X176085714Y-46467619D01*
X176133333Y-46562857D01*
X176133333Y-46705714D01*
X176085714Y-46800952D01*
X176038095Y-46848571D01*
X175942857Y-46896190D01*
X175561904Y-46896190D01*
X176514285Y-46467619D02*
X176561904Y-46420000D01*
X176657142Y-46372380D01*
X176895238Y-46372380D01*
X176990476Y-46420000D01*
X177038095Y-46467619D01*
X177085714Y-46562857D01*
X177085714Y-46658095D01*
X177038095Y-46800952D01*
X176466666Y-47372380D01*
X177085714Y-47372380D01*
%TO.C,R3*%
X176033333Y-40472412D02*
X175700000Y-39996222D01*
X175461904Y-40472412D02*
X175461904Y-39472412D01*
X175842857Y-39472412D01*
X175938095Y-39520032D01*
X175985714Y-39567651D01*
X176033333Y-39662889D01*
X176033333Y-39805746D01*
X175985714Y-39900984D01*
X175938095Y-39948603D01*
X175842857Y-39996222D01*
X175461904Y-39996222D01*
X176366666Y-39472412D02*
X176985714Y-39472412D01*
X176652380Y-39853365D01*
X176795238Y-39853365D01*
X176890476Y-39900984D01*
X176938095Y-39948603D01*
X176985714Y-40043841D01*
X176985714Y-40281936D01*
X176938095Y-40377174D01*
X176890476Y-40424793D01*
X176795238Y-40472412D01*
X176509523Y-40472412D01*
X176414285Y-40424793D01*
X176366666Y-40377174D01*
%TO.C,R4*%
X133283333Y-36782380D02*
X132950000Y-36306190D01*
X132711904Y-36782380D02*
X132711904Y-35782380D01*
X133092857Y-35782380D01*
X133188095Y-35830000D01*
X133235714Y-35877619D01*
X133283333Y-35972857D01*
X133283333Y-36115714D01*
X133235714Y-36210952D01*
X133188095Y-36258571D01*
X133092857Y-36306190D01*
X132711904Y-36306190D01*
X134140476Y-36115714D02*
X134140476Y-36782380D01*
X133902380Y-35734761D02*
X133664285Y-36449047D01*
X134283333Y-36449047D01*
%TD*%
M02*
